<?xml version="1.0" standalone="no"?>
<!DOCTYPE svg PUBLIC "-//W3C//DTD SVG 20010904//EN"
 "http://www.w3.org/TR/2001/REC-SVG-20010904/DTD/svg10.dtd">
<svg version="1.0" xmlns="http://www.w3.org/2000/svg"
 width="569.000000pt" height="569.000000pt" viewBox="0 0 569.000000 569.000000"
 preserveAspectRatio="xMidYMid meet">
<metadata>
Created by potrace 1.14, written by Peter Selinger 2001-2017
</metadata>
<g transform="translate(0.000000,569.000000) scale(0.100000,-0.100000)"
fill="#000000" stroke="none">
<path d="M4125 5448 c-39 -14 -92 -71 -100 -109 -14 -63 20 -136 97 -209 l42
-39 -24 -43 c-34 -62 -59 -99 -108 -162 l-44 -55 22 -36 c12 -19 19 -35 15
-35 -4 0 -68 29 -143 64 -158 73 -342 142 -432 161 -8 2 -46 11 -85 20 -38 9
-83 18 -100 19 -17 2 -40 6 -51 9 -17 5 -81 12 -194 23 -47 4 -313 4 -375 -1
-78 -5 -150 -15 -295 -42 -46 -8 -144 -34 -230 -60 -47 -15 -87 -27 -90 -28
-3 -1 -14 -5 -25 -10 -11 -4 -49 -19 -85 -33 -77 -29 -274 -126 -311 -153 -15
-10 -30 -19 -33 -19 -14 0 -212 -142 -303 -217 -264 -219 -509 -534 -657 -846
-53 -112 -126 -307 -141 -377 -2 -8 -10 -42 -18 -75 -18 -66 -23 -91 -38 -180
-22 -130 -33 -263 -33 -410 0 -102 10 -260 18 -305 3 -14 7 -43 10 -66 15
-135 68 -346 123 -494 38 -104 151 -343 165 -348 4 -2 8 -8 8 -13 0 -17 101
-172 176 -269 211 -276 487 -516 774 -672 88 -48 154 -82 160 -83 3 0 41 -16
85 -34 71 -30 193 -74 235 -86 59 -15 231 -55 260 -59 19 -3 46 -8 60 -10 42
-8 92 -14 165 -22 81 -8 385 -8 430 0 17 3 59 8 95 12 36 3 67 7 70 9 3 2 26
6 50 10 25 3 53 8 62 11 16 5 37 10 84 19 57 12 228 67 294 95 41 17 84 34 95
37 26 8 235 117 289 150 100 63 126 81 201 137 158 118 360 314 450 436 11 15
40 53 64 85 54 71 130 191 170 267 17 31 35 65 40 75 25 44 69 143 81 179 7
21 16 44 20 49 7 9 61 166 66 190 1 6 11 46 22 90 84 328 97 751 32 1055 -5
25 -12 56 -14 70 -11 59 -58 222 -90 310 -46 129 -48 133 -95 230 -126 261
-248 435 -468 669 l-62 66 39 6 c22 3 41 7 42 10 19 30 32 52 55 97 15 29 39
66 54 82 30 32 49 31 120 -5 49 -26 147 -29 190 -6 49 26 79 75 79 127 0 60
-24 118 -81 193 -36 48 -51 78 -59 120 -15 82 -29 121 -61 167 -85 124 -229
206 -362 206 -38 0 -74 -5 -80 -11 -16 -16 -63 -13 -78 5 -8 9 -31 28 -53 42
-46 28 -142 39 -191 20z m153 -48 c72 -38 77 -45 77 -113 0 -63 18 -97 22 -42
6 79 69 120 174 113 65 -5 159 -41 203 -77 85 -72 126 -132 147 -215 16 -63 6
-70 -60 -45 -81 30 -86 10 -7 -29 98 -49 208 -177 219 -254 14 -109 -119 -176
-233 -118 -44 22 -48 34 -23 62 21 23 6 23 -33 -1 -34 -20 -134 -119 -134
-132 0 -21 -31 -37 -58 -30 -66 19 -191 87 -299 163 -66 46 -50 19 20 -34 61
-45 210 -138 225 -138 18 -1 54 -41 49 -54 -8 -19 -36 -14 -107 21 -126 61
-265 159 -353 248 -82 84 -82 88 -6 190 20 28 48 73 63 102 14 28 29 54 34 57
5 3 51 -19 103 -47 138 -77 152 -86 184 -114 7 -7 16 -13 20 -13 3 0 15 -9 27
-20 40 -37 42 -20 3 21 -45 45 -135 107 -240 164 -92 50 -147 88 -190 132 -30
31 -35 43 -35 82 0 58 16 89 59 118 42 29 99 30 149 3z m-1238 -405 c114 -8
216 -20 250 -30 8 -2 31 -6 50 -9 28 -5 98 -23 195 -50 147 -41 314 -113 475
-203 124 -70 125 -71 193 -120 31 -24 61 -43 66 -43 5 0 11 -3 13 -7 2 -5 37
-35 78 -68 72 -57 243 -222 306 -295 173 -201 327 -453 417 -686 39 -101 103
-299 111 -344 1 -8 8 -40 14 -70 29 -140 37 -234 37 -480 0 -234 -12 -373 -39
-485 -2 -5 -6 -28 -10 -50 -4 -22 -10 -47 -13 -55 -3 -8 -7 -22 -8 -30 -1 -8
-15 -53 -31 -100 -15 -47 -28 -87 -29 -90 -1 -3 -7 -18 -13 -33 -7 -16 -12
-31 -12 -34 0 -7 -24 -61 -83 -183 -154 -318 -421 -645 -697 -850 -18 -14 -38
-29 -44 -35 -23 -20 -107 -75 -115 -75 -5 0 -11 -3 -13 -7 -9 -21 -240 -146
-343 -188 -38 -15 -83 -33 -100 -40 -73 -31 -281 -94 -370 -111 -11 -2 -31 -6
-45 -9 -14 -3 -34 -7 -46 -9 -145 -28 -649 -28 -785 -1 -13 3 -37 8 -52 10
-160 30 -372 96 -536 169 -98 43 -301 155 -332 182 -8 8 -19 14 -22 14 -7 0
-87 57 -117 83 -8 7 -35 28 -60 47 -155 119 -363 345 -487 530 -140 210 -280
498 -293 605 -1 6 -6 15 -10 20 -5 6 -11 22 -14 35 -3 14 -13 52 -22 85 -9 33
-18 67 -19 75 -2 8 -4 15 -5 15 -2 0 -9 34 -16 80 -3 22 -8 51 -10 65 -26 168
-25 625 1 760 55 287 123 489 242 719 55 106 179 306 216 347 7 7 17 19 22 26
77 100 241 273 335 354 62 53 203 158 260 193 30 18 67 42 82 52 77 53 353
177 494 222 59 19 234 64 279 71 17 3 55 10 85 16 30 6 89 13 130 17 41 3 76
6 77 7 5 4 281 -3 363 -9z"/>
<path d="M2657 4953 c-1 0 -27 -4 -57 -8 -409 -50 -733 -167 -1050 -378 -182
-121 -306 -227 -460 -393 -53 -58 -74 -83 -139 -169 -17 -22 -34 -44 -39 -50
-15 -20 -81 -122 -112 -175 -119 -201 -232 -485 -266 -670 -2 -14 -6 -34 -9
-46 -3 -12 -7 -39 -10 -60 -3 -21 -8 -49 -10 -60 -25 -115 -24 -582 1 -719 17
-98 47 -227 65 -289 12 -39 22 -75 24 -81 1 -5 6 -19 10 -30 4 -11 21 -56 38
-100 32 -85 114 -254 155 -320 44 -70 136 -210 142 -215 3 -3 32 -39 64 -80
55 -68 272 -292 323 -331 191 -149 290 -214 458 -299 200 -101 427 -180 590
-206 28 -4 55 -8 62 -10 165 -33 605 -38 768 -9 88 16 147 29 215 47 41 11 82
21 90 23 8 2 16 4 18 5 1 2 5 3 10 4 105 27 345 130 448 192 18 10 58 35 90
54 33 19 64 38 69 42 6 5 44 33 85 64 41 30 98 73 125 96 83 70 267 259 320
328 28 36 53 67 56 70 19 16 155 230 203 320 45 86 131 285 141 325 1 6 5 17
8 25 22 55 64 226 92 375 26 138 26 540 0 735 -13 91 -76 328 -119 446 -161
439 -447 815 -836 1101 -85 62 -118 84 -225 145 -159 92 -394 187 -575 233
-45 11 -211 44 -248 49 -76 10 -508 26 -515 19z m383 -277 c19 -3 67 -10 105
-17 133 -21 292 -66 465 -131 47 -17 271 -132 307 -156 15 -10 46 -30 69 -44
59 -37 230 -177 294 -240 273 -270 453 -577 559 -953 38 -137 39 -142 56 -305
6 -58 6 -357 0 -435 -7 -89 -20 -164 -50 -295 -25 -107 -168 -443 -227 -535
-82 -126 -129 -195 -140 -206 -7 -8 -26 -32 -43 -54 -43 -59 -229 -242 -311
-307 -235 -186 -507 -322 -798 -397 -129 -34 -150 -37 -337 -59 -70 -9 -291
-7 -374 2 -27 3 -72 8 -100 11 -125 14 -383 85 -518 142 -100 42 -340 174
-392 216 -5 4 -34 25 -63 46 -388 284 -671 717 -787 1206 -34 142 -39 203 -39
435 -1 183 3 251 18 370 8 58 53 220 91 325 30 86 144 331 167 360 4 6 38 56
75 112 86 128 123 172 254 303 132 132 155 151 309 254 157 107 343 201 495
251 57 19 184 56 209 61 137 27 192 36 251 41 39 3 71 7 73 8 6 5 345 -3 382
-9z"/>
<path d="M2658 4634 c-2 -1 -36 -5 -76 -8 -41 -3 -77 -8 -80 -10 -4 -2 -29 -7
-56 -10 -27 -4 -53 -9 -56 -11 -4 -2 -21 -7 -38 -10 -18 -3 -51 -12 -75 -19
-35 -12 -120 -37 -137 -41 -3 0 -15 -6 -26 -13 -12 -6 -24 -8 -28 -5 -3 3 -6
0 -6 -7 0 -7 -3 -11 -6 -8 -6 6 -167 -62 -181 -76 -8 -7 29 5 82 29 42 18 148
59 160 62 6 1 42 11 80 23 99 31 258 67 340 79 67 9 423 7 495 -4 19 -2 53 -7
75 -10 56 -7 186 -36 210 -46 11 -5 29 -11 40 -12 23 -4 19 -3 140 -47 337
-121 677 -370 890 -650 27 -36 52 -67 55 -70 6 -6 9 -11 88 -145 156 -262 248
-541 267 -800 7 -105 7 -373 0 -454 -21 -224 -120 -516 -265 -776 -75 -135
-282 -382 -420 -501 -120 -103 -293 -216 -437 -285 -48 -23 -99 -47 -113 -54
-28 -14 -196 -69 -277 -91 -55 -14 -87 -21 -143 -30 -19 -3 -42 -7 -50 -9 -27
-8 -193 -17 -305 -17 -113 0 -330 14 -330 22 0 1 -13 3 -30 5 -79 10 -331 83
-415 121 -88 40 -236 117 -297 156 -59 37 -168 113 -183 128 -3 3 -27 23 -55
45 -178 143 -367 381 -484 610 -90 176 -161 378 -196 556 -29 146 -26 595 4
729 5 25 13 60 16 78 23 134 154 460 227 564 10 14 18 29 18 32 0 7 80 128 90
136 3 3 13 14 21 26 19 28 92 115 154 182 43 47 111 109 206 187 31 25 219
155 224 155 12 0 105 63 101 68 -3 3 -23 -7 -44 -22 -21 -14 -41 -26 -46 -26
-4 0 -46 -25 -94 -57 -328 -213 -594 -527 -751 -885 -23 -54 -44 -107 -46
-118 -2 -11 -7 -24 -10 -30 -6 -10 -54 -162 -61 -195 -2 -11 -6 -30 -9 -42 -3
-13 -7 -33 -10 -45 -33 -146 -38 -494 -10 -698 10 -74 54 -238 95 -355 36
-101 135 -310 174 -368 14 -21 26 -40 26 -43 0 -10 107 -153 164 -219 98 -112
185 -196 280 -270 21 -16 44 -34 50 -40 52 -46 237 -156 359 -213 159 -76 403
-153 531 -168 24 -2 54 -7 66 -9 111 -21 353 -21 545 1 92 10 329 68 390 94
11 5 31 12 45 16 13 4 57 22 97 40 40 19 75 34 77 34 13 0 297 170 316 190 3
3 39 32 80 64 186 147 326 309 477 552 55 88 186 394 182 424 0 3 5 19 11 35
14 35 15 38 36 130 33 141 38 199 38 410 0 164 -7 303 -18 355 -3 13 -8 41
-11 61 -3 21 -17 75 -31 121 -14 46 -26 88 -27 93 -9 33 -41 121 -53 144 -8
14 -14 29 -14 33 0 10 -60 131 -94 188 -14 25 -30 54 -35 65 -18 40 -152 220
-223 299 -112 125 -344 326 -376 326 -6 0 -12 3 -14 8 -11 26 -242 149 -383
204 -120 47 -293 97 -390 113 -41 7 -111 16 -155 21 -50 6 -348 13 -352 8z"/>
<path d="M1907 3733 c-19 -18 1 -59 88 -181 52 -73 95 -137 95 -143 0 -5 4 -9
9 -9 10 0 67 -91 76 -122 5 -21 4 -20 -20 7 -31 36 -77 97 -175 230 -41 55
-88 115 -106 134 l-32 34 -26 -26 c-26 -26 -26 -27 -10 -59 9 -18 36 -59 60
-91 24 -31 44 -61 44 -67 0 -5 6 -13 13 -17 7 -4 23 -25 36 -46 13 -21 28 -43
35 -50 18 -19 76 -109 76 -119 0 -18 -26 -6 -45 21 -90 132 -273 371 -283 371
-23 0 -52 -20 -52 -36 0 -13 27 -62 125 -226 5 -9 25 -43 44 -75 47 -80 107
-160 130 -173 11 -5 40 -12 65 -14 97 -10 119 -22 166 -86 100 -135 110 -149
110 -158 0 -5 7 -15 15 -22 8 -6 30 -40 50 -73 19 -34 46 -80 60 -102 14 -22
28 -47 32 -55 3 -8 16 -31 28 -50 12 -19 33 -55 46 -80 52 -96 104 -168 131
-185 48 -28 113 -5 150 53 25 41 19 82 -22 136 -17 22 -30 46 -30 53 0 11 61
55 161 118 88 55 302 212 355 261 18 16 52 48 78 72 l46 43 3 92 c3 79 7 99
32 145 57 105 166 169 318 187 127 15 205 -63 186 -188 -9 -55 -47 -147 -61
-147 -4 0 -8 -6 -8 -14 0 -21 -102 -110 -157 -136 -69 -33 -112 -36 -176 -13
-48 18 -58 19 -87 7 -27 -12 -123 -76 -140 -94 -3 -3 -27 -23 -55 -45 -64 -51
-307 -294 -364 -362 -90 -111 -29 -65 149 110 223 219 260 253 325 298 73 51
89 55 217 53 110 -3 120 -1 164 23 147 82 257 285 222 410 -12 43 -66 104
-106 119 -107 40 -314 -24 -405 -125 -64 -72 -81 -110 -83 -184 -5 -121 -8
-129 -83 -200 -38 -35 -104 -91 -147 -123 -116 -85 -399 -274 -412 -274 -13 0
-35 22 -122 119 -36 41 -70 79 -75 85 -6 6 -33 38 -60 71 -28 33 -52 62 -55
65 -17 17 -83 104 -117 155 -39 58 -67 128 -56 139 3 3 8 43 10 88 l4 83 -101
125 c-197 245 -252 295 -283 263z m64 -50 c20 -21 74 -85 120 -143 46 -58 92
-114 102 -125 10 -11 32 -41 49 -68 30 -46 30 -49 17 -94 -16 -59 -19 -101 -7
-133 10 -28 85 -147 108 -170 8 -9 26 -31 40 -50 32 -44 189 -231 210 -250 9
-8 38 -42 64 -75 l48 -59 -46 -39 c-25 -22 -46 -45 -46 -53 0 -22 12 -16 64
31 56 51 60 50 108 -24 36 -58 35 -83 -3 -115 -53 -45 -78 -45 -118 1 -30 33
-109 164 -180 298 -9 17 -18 32 -21 35 -3 3 -16 25 -29 50 -27 50 -185 285
-205 305 -7 7 -24 26 -37 43 -35 41 -60 52 -129 57 -33 2 -68 9 -78 14 -11 6
-38 41 -62 78 -24 37 -67 105 -96 150 -30 46 -54 86 -54 90 0 5 -15 30 -34 56
-19 27 -32 55 -29 63 7 19 23 13 37 -12 6 -10 13 -21 16 -24 3 -3 34 -45 70
-95 35 -49 68 -91 72 -93 4 -2 8 -10 8 -17 0 -7 3 -15 8 -17 4 -1 29 -31 55
-65 27 -33 57 -63 67 -66 20 -5 40 10 40 31 0 12 -74 134 -100 165 -21 25
-124 173 -153 220 -20 33 -26 52 -19 59 6 6 34 -24 86 -94 42 -56 79 -107 84
-113 4 -5 19 -26 32 -45 13 -19 30 -41 37 -48 7 -8 18 -23 24 -34 34 -63 73
-83 104 -52 14 15 14 19 -6 52 -23 39 -128 189 -211 303 -26 37 -48 72 -48 78
0 6 -5 11 -11 11 -5 0 -7 5 -4 10 10 16 19 12 56 -27z"/>
<path d="M3710 3373 c-66 -13 -182 -118 -215 -196 -33 -79 -10 -86 29 -9 47
93 160 175 257 188 27 4 49 10 49 15 0 9 -75 10 -120 2z"/>
<path d="M1940 2070 c-105 -19 -259 -158 -264 -240 -2 -24 19 -23 22 2 5 32
110 129 179 165 102 54 249 69 298 31 19 -15 23 -26 20 -58 -2 -22 -11 -53
-19 -69 -30 -56 -119 -136 -196 -174 -69 -33 -117 -42 -114 -21 4 27 38 121
69 186 36 77 43 108 25 108 -15 0 -73 -94 -110 -180 -35 -80 -43 -90 -77 -90
-34 0 -38 -19 -9 -49 27 -28 31 -55 35 -200 1 -40 12 -35 16 6 1 16 6 39 10
53 7 22 10 42 14 88 2 23 23 12 84 -43 58 -53 149 -104 212 -120 17 -5 35 -9
40 -11 26 -8 89 -16 85 -12 -3 3 -54 22 -113 42 -110 36 -169 70 -221 125
l-29 30 34 14 c19 8 54 23 79 33 139 56 226 165 221 275 -1 27 -50 88 -86 107
-21 11 -147 12 -205 2z"/>
<path d="M3215 2058 c-100 -13 -178 -47 -242 -107 -54 -50 -74 -101 -64 -164
3 -20 21 7 21 31 0 42 11 72 26 72 7 0 28 13 46 29 85 73 194 119 279 116 30
-1 61 -5 68 -9 59 -37 6 -177 -109 -284 -35 -33 -137 -88 -147 -78 -7 7 24
108 63 205 19 47 34 94 34 105 0 18 -1 18 -25 -4 -30 -28 -74 -116 -109 -219
-14 -41 -33 -82 -41 -91 -8 -9 -12 -19 -9 -23 3 -3 6 -49 5 -101 -1 -88 0 -96
17 -96 16 0 20 10 26 66 9 90 25 118 77 133 48 14 79 32 126 72 17 15 36 28
43 31 6 2 12 11 14 20 1 10 6 21 11 25 4 4 5 1 0 -7 -4 -8 7 1 24 20 48 54 66
122 47 180 -7 21 -60 78 -76 81 -26 4 -54 4 -105 -3z m-218 -133 c-23 -22 -33
-18 -12 5 10 11 20 18 23 16 2 -3 -3 -12 -11 -21z"/>
<path d="M2567 1843 c-4 -3 -7 -15 -7 -25 0 -26 24 -17 28 10 3 21 -8 29 -21
15z"/>
<path d="M3906 1736 c-18 -30 -43 -54 -80 -75 -66 -38 -76 -38 -71 -3 7 53 23
82 47 83 22 0 22 1 3 8 -31 12 -55 1 -80 -38 -12 -20 -34 -47 -49 -60 -24 -23
-26 -23 -26 -5 1 10 7 30 15 44 20 36 18 57 -6 63 -38 10 -95 -18 -168 -83
-71 -64 -88 -91 -32 -50 32 22 68 23 63 2 -3 -19 23 -25 48 -12 16 9 25 9 35
0 19 -16 52 -4 89 31 17 15 32 26 34 24 9 -9 -10 -56 -33 -81 -14 -15 -25 -34
-25 -44 0 -20 41 -60 61 -60 10 1 10 4 -4 14 -21 16 -28 67 -10 73 16 6 45
-54 38 -77 -5 -15 -2 -20 14 -20 29 0 33 14 16 62 -8 24 -15 49 -15 55 0 7 24
26 53 43 53 31 84 39 71 19 -12 -21 19 -28 50 -12 27 14 24 8 -22 -41 -56 -59
-61 -79 -21 -84 32 -3 69 30 112 102 20 32 48 67 64 78 l28 19 -29 -7 c-28 -7
-29 -6 -23 25 5 23 3 31 -8 31 -8 0 -15 -4 -15 -9 0 -4 -18 -29 -41 -55 -44
-50 -75 -62 -63 -23 31 97 21 132 -20 63z m-313 -66 c-29 -41 -47 -52 -36 -22
10 30 57 86 61 74 2 -6 -9 -30 -25 -52z m343 -110 c-28 -42 -36 -48 -36 -27 0
16 51 79 58 72 3 -2 -7 -23 -22 -45z"/>
<path d="M2227 1738 c-34 -31 -49 -81 -36 -116 10 -26 11 -26 24 -8 8 10 12
23 9 28 -3 4 15 17 40 28 37 16 46 24 46 44 0 24 -24 46 -49 46 -5 0 -21 -10
-34 -22z m57 -17 c3 -5 -1 -12 -10 -15 -20 -8 -29 -1 -19 13 8 13 22 14 29 2z"/>
<path d="M2518 1732 c-34 -57 -138 -137 -138 -106 0 23 36 75 61 87 24 11 27
16 16 25 -8 7 -24 8 -38 4 -25 -7 -167 -120 -168 -134 -1 -4 17 2 39 13 41 21
75 22 75 2 0 -6 3 -14 7 -18 9 -10 65 10 85 31 15 15 17 14 30 -10 17 -33 46
-33 87 -2 33 24 71 36 139 41 75 6 133 16 147 26 17 10 -2 12 -115 10 -100 -2
-126 -9 -162 -47 -50 -54 -63 -45 -42 30 18 63 18 76 6 76 -7 0 -20 -13 -29
-28z"/>
<path d="M3405 1738 c-37 -29 -58 -80 -45 -113 13 -34 28 -32 38 7 6 24 16 34
42 43 41 14 60 53 34 72 -25 18 -37 16 -69 -9z m45 -33 c-7 -9 -15 -13 -18
-10 -3 2 1 11 8 20 7 9 15 13 18 10 3 -2 -1 -11 -8 -20z"/>
<path d="M2916 1696 c3 -8 12 -17 20 -20 12 -4 12 -2 4 14 -12 23 -32 27 -24
6z"/>
<path d="M2305 1450 c-3 -5 3 -10 14 -10 11 0 23 5 26 10 3 6 -3 10 -14 10
-11 0 -23 -4 -26 -10z"/>
</g>
</svg>
