<svg width="46" height="47" viewBox="0 0 46 47" fill="none" xmlns="http://www.w3.org/2000/svg">
<g filter="url(#filter0_d_2349_2468)">
<path d="M4 1.3C4 0.955219 4.13345 0.624558 4.37101 0.380761C4.60856 0.136964 4.93074 0 5.26669 0H9.06677C9.34932 8.01098e-05 9.62373 0.0971118 9.84637 0.275664C10.069 0.454217 10.2271 0.704038 10.2955 0.9854L11.3215 5.2H40.7341C40.9214 5.20012 41.1064 5.24287 41.2757 5.32519C41.445 5.40751 41.5944 5.52735 41.7131 5.67606C41.8318 5.82477 41.9169 5.99866 41.9623 6.18519C42.0077 6.37173 42.0121 6.56627 41.9754 6.7548L39.442 19.7548C39.3866 20.0383 39.2407 20.2947 39.0273 20.4835C38.814 20.6724 38.5454 20.7828 38.264 20.7974L14.4578 22.0246L15.1849 26H36.934C37.2699 26 37.5921 26.137 37.8297 26.3808C38.0672 26.6246 38.2007 26.9552 38.2007 27.3C38.2007 27.6448 38.0672 27.9754 37.8297 28.2192C37.5921 28.463 37.2699 28.6 36.934 28.6H14.1335C13.8382 28.5997 13.5523 28.4936 13.3252 28.2999C13.098 28.1062 12.944 27.8371 12.8896 27.5392L9.0921 6.7782L8.07875 2.6H5.26669C4.93074 2.6 4.60856 2.46304 4.37101 2.21924C4.13345 1.97544 4 1.64478 4 1.3ZM11.8586 7.8L13.9866 19.4454L37.1519 18.252L39.1887 7.8H11.8586ZM16.6669 28.6C15.3231 28.6 14.0344 29.1479 13.0842 30.123C12.134 31.0982 11.6002 32.4209 11.6002 33.8C11.6002 35.1791 12.134 36.5018 13.0842 37.477C14.0344 38.4521 15.3231 39 16.6669 39C18.0107 39 19.2995 38.4521 20.2497 37.477C21.1999 36.5018 21.7337 35.1791 21.7337 33.8C21.7337 32.4209 21.1999 31.0982 20.2497 30.123C19.2995 29.1479 18.0107 28.6 16.6669 28.6ZM34.4006 28.6C33.0568 28.6 31.7681 29.1479 30.8179 30.123C29.8677 31.0982 29.3338 32.4209 29.3338 33.8C29.3338 35.1791 29.8677 36.5018 30.8179 37.477C31.7681 38.4521 33.0568 39 34.4006 39C35.7444 39 37.0332 38.4521 37.9834 37.477C38.9336 36.5018 39.4674 35.1791 39.4674 33.8C39.4674 32.4209 38.9336 31.0982 37.9834 30.123C37.0332 29.1479 35.7444 28.6 34.4006 28.6ZM16.6669 31.2C17.3388 31.2 17.9832 31.4739 18.4583 31.9615C18.9334 32.4491 19.2003 33.1104 19.2003 33.8C19.2003 34.4896 18.9334 35.1509 18.4583 35.6385C17.9832 36.1261 17.3388 36.4 16.6669 36.4C15.995 36.4 15.3507 36.1261 14.8755 35.6385C14.4004 35.1509 14.1335 34.4896 14.1335 33.8C14.1335 33.1104 14.4004 32.4491 14.8755 31.9615C15.3507 31.4739 15.995 31.2 16.6669 31.2ZM34.4006 31.2C35.0725 31.2 35.7169 31.4739 36.192 31.9615C36.6671 32.4491 36.934 33.1104 36.934 33.8C36.934 34.4896 36.6671 35.1509 36.192 35.6385C35.7169 36.1261 35.0725 36.4 34.4006 36.4C33.7287 36.4 33.0843 36.1261 32.6092 35.6385C32.1341 35.1509 31.8672 34.4896 31.8672 33.8C31.8672 33.1104 32.1341 32.4491 32.6092 31.9615C33.0843 31.4739 33.7287 31.2 34.4006 31.2Z" fill="black"/>
</g>
<defs>
<filter id="filter0_d_2349_2468" x="0" y="0" width="46" height="47" filterUnits="userSpaceOnUse" color-interpolation-filters="sRGB">
<feFlood flood-opacity="0" result="BackgroundImageFix"/>
<feColorMatrix in="SourceAlpha" type="matrix" values="0 0 0 0 0 0 0 0 0 0 0 0 0 0 0 0 0 0 127 0" result="hardAlpha"/>
<feOffset dy="4"/>
<feGaussianBlur stdDeviation="2"/>
<feComposite in2="hardAlpha" operator="out"/>
<feColorMatrix type="matrix" values="0 0 0 0 0 0 0 0 0 0 0 0 0 0 0 0 0 0 0.25 0"/>
<feBlend mode="normal" in2="BackgroundImageFix" result="effect1_dropShadow_2349_2468"/>
<feBlend mode="normal" in="SourceGraphic" in2="effect1_dropShadow_2349_2468" result="shape"/>
</filter>
</defs>
</svg>
