<svg width="20" height="20" viewBox="0 0 20 20" fill="none" xmlns="http://www.w3.org/2000/svg">
<path d="M17.1872 1.47368H12.9091V1.43158C12.9091 0.631579 12.2674 0 11.4545 0H8.54545C7.73262 0 7.09091 0.631579 7.09091 1.43158V1.47368H2.81283C2.36364 1.47368 2 1.83158 2 2.27368V3.07368C2 3.51579 2.36364 3.87368 2.81283 3.87368H17.1872C17.6364 3.87368 18 3.51579 18 3.07368V2.27368C18 1.83158 17.6364 1.47368 17.1872 1.47368Z" fill="#7D90B2"/>
<path d="M16.1176 4.96875H3.88232C3.64702 4.96875 3.4759 5.15822 3.49729 5.3898L4.09622 17.5793C4.16039 18.9266 5.29408 20.0003 6.66306 20.0003H13.3155C14.6845 20.0003 15.8181 18.9477 15.8823 17.5793L16.4812 5.3898C16.524 5.17928 16.3315 4.96875 16.1176 4.96875ZM8.67376 16.7372C8.67376 17.1161 8.37429 17.4109 7.98927 17.4109C7.60424 17.4109 7.30478 17.1161 7.30478 16.7372V8.25296C7.30478 7.87401 7.60424 7.57928 7.98927 7.57928C8.37429 7.57928 8.67376 7.87401 8.67376 8.25296V16.7372ZM12.6951 16.7372C12.6951 17.1161 12.3957 17.4109 12.0107 17.4109C11.6256 17.4109 11.3262 17.1161 11.3262 16.7372V8.25296C11.3262 7.87401 11.6256 7.57928 12.0107 7.57928C12.3957 7.57928 12.6951 7.87401 12.6951 8.25296V16.7372Z" fill="#7D90B2"/>
</svg>
