<svg width="25" height="24" viewBox="0 0 25 24" fill="none" xmlns="http://www.w3.org/2000/svg">
<path fill-rule="evenodd" clip-rule="evenodd" d="M12.6141 24.695C19.3965 24.695 24.8948 19.2041 24.8948 12.4308C24.8948 5.65751 19.3965 0.166668 12.6141 0.166668C5.83163 0.166668 0.333374 5.65751 0.333374 12.4308C0.333374 19.2041 5.83163 24.695 12.6141 24.695ZM12.6141 11.2044C14.6488 11.2044 16.2983 9.55715 16.2983 7.52516C16.2983 5.49317 14.6488 3.84591 12.6141 3.84591C10.5793 3.84591 8.92987 5.49317 8.92987 7.52516C8.92987 9.55715 10.5793 11.2044 12.6141 11.2044ZM5.24565 17.3365C6.16671 14.577 10.772 13.6572 12.6141 13.6572C14.4562 13.6572 19.0614 14.577 19.9825 17.3365C19.0614 20.0959 15.3772 21.0157 12.6141 21.0157C9.85092 21.0157 6.16671 20.0959 5.24565 17.3365Z" fill="#918D8D"/>
</svg>
