<?xml version="1.0" standalone="no"?>
<!DOCTYPE svg PUBLIC "-//W3C//DTD SVG 20010904//EN"
 "http://www.w3.org/TR/2001/REC-SVG-20010904/DTD/svg10.dtd">
<svg version="1.0" xmlns="http://www.w3.org/2000/svg"
 width="383.000000pt" height="427.000000pt" viewBox="0 0 383.000000 427.000000"
 preserveAspectRatio="xMidYMid meet">

<g transform="translate(0.000000,427.000000) scale(0.100000,-0.100000)"
fill="#000000" stroke="none">
<path d="M2862 4080 c-79 -49 -80 -136 -2 -212 l49 -47 -25 -48 c-14 -26 -43
-69 -65 -95 -21 -26 -39 -51 -39 -56 0 -5 10 -21 21 -36 20 -25 14 -24 -78 22
-705 354 -1572 205 -2124 -365 -439 -453 -613 -1053 -488 -1677 125 -622 599
-1159 1205 -1365 825 -281 1722 50 2173 801 425 709 321 1627 -252 2225 -78
81 -78 82 -45 77 33 -6 34 -4 72 65 58 106 64 109 127 77 61 -30 107 -33 156
-9 84 40 77 153 -18 258 -19 21 -28 45 -32 82 -8 69 -35 119 -96 176 -86 81
-206 116 -283 84 -34 -14 -37 -14 -55 5 -50 56 -143 73 -201 38z m125 -21 c15
-6 38 -20 50 -31 18 -17 21 -28 16 -68 -3 -28 -1 -50 5 -54 7 -4 10 4 10 22
-1 42 17 68 61 86 107 42 282 -55 325 -182 15 -43 21 -82 12 -82 -2 0 -20 7
-39 15 -69 28 -83 16 -19 -16 93 -46 172 -144 172 -214 0 -16 -12 -38 -29 -56
-24 -24 -38 -29 -76 -29 -74 0 -137 45 -89 64 9 4 14 9 11 12 -16 16 -116 -69
-146 -125 -11 -20 -12 -20 -59 -2 -54 21 -133 66 -207 118 l-50 35 50 -46 c28
-25 85 -65 128 -88 111 -61 114 -64 99 -79 -10 -11 -27 -6 -90 25 -122 60
-252 160 -296 228 -17 26 -17 27 24 80 22 29 50 72 61 96 11 23 23 42 26 42
19 0 193 -102 230 -134 63 -55 63 -39 1 20 -32 30 -95 71 -155 102 -106 54
-172 109 -175 146 -3 49 4 73 32 99 33 29 69 34 117 16z m-755 -328 c363 -63
697 -239 964 -505 266 -267 439 -596 506 -964 30 -167 30 -467 0 -634 -105
-576 -473 -1058 -1006 -1319 -128 -63 -315 -124 -464 -151 -167 -30 -467 -30
-634 0 -576 105 -1058 473 -1319 1006 -63 128 -124 315 -151 464 -30 167 -30
467 0 634 119 649 577 1184 1198 1398 121 42 261 73 394 90 117 14 378 4 512
-19z"/>
<path d="M1765 3714 c-16 -2 -66 -9 -110 -15 -552 -73 -1067 -446 -1326 -961
-129 -257 -183 -491 -183 -793 0 -190 10 -277 51 -440 122 -487 468 -916 925
-1146 257 -129 491 -183 793 -183 190 0 277 10 440 51 616 154 1124 662 1278
1278 41 163 51 250 51 440 0 190 -10 277 -51 440 -122 487 -468 916 -925 1146
-162 82 -323 134 -508 166 -83 14 -376 26 -435 17z m325 -208 c607 -81 1106
-489 1299 -1061 60 -178 75 -278 75 -485 0 -207 -16 -309 -75 -485 -171 -507
-588 -892 -1111 -1026 -796 -203 -1625 248 -1887 1026 -60 178 -75 278 -75
485 0 207 16 309 75 485 239 710 959 1159 1699 1061z"/>
<path d="M1700 3469 c-230 -27 -507 -136 -702 -276 -317 -228 -525 -550 -609
-943 -33 -151 -33 -429 0 -580 69 -324 223 -601 451 -813 598 -555 1502 -555
2100 0 228 212 382 489 451 813 19 88 23 136 23 290 0 200 -16 308 -70 470
-230 692 -913 1123 -1644 1039z m480 -29 c547 -111 976 -487 1153 -1010 54
-158 71 -269 71 -470 0 -154 -4 -203 -23 -290 -87 -408 -313 -741 -654 -967
-166 -109 -336 -179 -547 -224 -151 -32 -429 -32 -580 0 -211 45 -381 115
-547 224 -341 226 -567 559 -654 967 -32 151 -32 429 0 580 71 335 233 615
485 839 77 68 228 172 315 216 141 71 351 134 512 155 117 14 349 5 469 -20z"/>
<path d="M1211 2796 c-13 -15 -5 -28 132 -218 72 -100 88 -128 69 -128 -4 0
-56 68 -116 151 -60 83 -115 153 -124 156 -9 4 -22 -3 -33 -16 -18 -22 -17
-23 88 -169 113 -158 119 -167 105 -176 -5 -3 -58 63 -117 147 -60 84 -113
155 -118 159 -13 8 -47 -13 -47 -29 0 -6 23 -49 51 -95 29 -46 60 -97 70 -115
41 -73 93 -143 108 -147 9 -3 41 -8 71 -11 30 -4 60 -12 67 -18 23 -24 148
-203 178 -257 18 -30 60 -104 95 -165 90 -158 104 -175 146 -175 26 0 44 8 65
29 38 39 38 76 -2 124 -18 21 -28 42 -23 46 5 5 38 27 74 49 133 84 276 189
342 252 l68 65 0 69 c0 56 5 77 26 113 44 76 135 126 247 136 87 7 142 -49
133 -136 -11 -100 -100 -210 -197 -242 -46 -16 -54 -16 -99 -1 -27 9 -53 16
-58 16 -22 0 -156 -101 -229 -171 -178 -173 -263 -269 -238 -269 3 0 74 69
157 153 189 190 268 252 317 250 151 -7 156 -7 196 14 137 73 220 268 149 353
-35 41 -70 57 -124 57 -101 0 -214 -60 -272 -146 -28 -40 -31 -52 -31 -113 1
-63 -1 -72 -29 -104 -58 -66 -212 -180 -404 -300 -12 -7 -28 -19 -36 -27 -12
-12 -27 1 -116 102 -148 170 -162 186 -215 264 -45 66 -48 74 -43 117 14 102
14 114 -8 141 -11 14 -41 50 -65 80 -162 201 -182 219 -210 185z m36 -14 c7
-4 34 -35 60 -69 27 -33 75 -93 109 -134 68 -83 80 -109 64 -139 -6 -11 -12
-38 -13 -60 -1 -33 9 -54 57 -125 33 -48 115 -150 183 -227 69 -76 123 -141
121 -142 -1 -1 -20 -15 -40 -30 -22 -16 -35 -33 -32 -41 4 -10 17 -3 47 25 22
22 42 39 43 37 27 -27 64 -84 64 -99 0 -26 -47 -68 -76 -68 -24 0 -59 43 -107
131 -13 24 -33 60 -44 79 -11 19 -31 55 -45 80 -36 66 -124 197 -165 250 -58
73 -69 80 -128 80 -60 0 -71 8 -112 78 -15 26 -44 73 -65 104 -21 31 -38 59
-38 63 0 3 -14 24 -30 47 -22 29 -27 45 -20 52 8 8 13 8 18 0 73 -107 208
-287 221 -293 22 -12 41 -3 41 19 0 10 -49 87 -110 171 -99 138 -116 169 -91
169 5 0 56 -67 114 -149 59 -82 111 -152 117 -156 16 -10 50 5 50 22 0 8 -48
80 -106 160 -58 81 -108 152 -111 160 -6 14 5 17 24 5z"/>
<path d="M2564 2528 c-76 -24 -156 -108 -169 -177 -7 -37 11 -22 33 27 33 73
134 142 207 142 14 0 25 5 25 10 0 12 -55 11 -96 -2z"/>
<path d="M1218 1550 c-42 -12 -126 -77 -153 -118 -25 -36 -35 -89 -15 -77 6 3
10 15 10 25 0 24 91 103 150 131 58 28 176 37 204 16 42 -32 15 -109 -63 -179
-55 -49 -159 -95 -167 -74 -5 14 22 90 60 165 23 45 24 61 5 61 -10 0 -68
-102 -89 -159 -16 -40 -21 -46 -44 -43 -32 4 -35 -19 -6 -39 17 -12 20 -27 21
-96 1 -46 5 -80 10 -77 4 2 7 20 5 39 -1 19 1 32 6 29 4 -3 8 13 8 35 0 22 4
42 8 45 5 3 24 -11 43 -30 19 -20 51 -47 71 -60 46 -29 149 -64 185 -63 27 1
26 2 -7 11 -126 37 -162 52 -204 89 -25 23 -46 45 -46 49 0 5 19 14 43 21 84
22 154 75 188 140 29 58 25 95 -15 135 -33 33 -37 34 -107 33 -41 0 -86 -4
-101 -9z"/>
<path d="M2124 1529 c-66 -25 -109 -55 -138 -97 -27 -40 -32 -67 -16 -92 7
-11 10 -6 10 20 0 29 19 83 20 56 0 -4 19 8 41 29 94 85 259 115 275 50 15
-61 -70 -185 -157 -229 -29 -14 -54 -24 -57 -22 -5 6 34 126 64 194 16 37 19
52 10 52 -23 0 -64 -71 -93 -161 -18 -58 -33 -89 -43 -90 -9 0 -10 -3 -4 -5 8
-3 11 -29 8 -79 -4 -70 -3 -75 16 -75 13 0 18 5 14 14 -3 8 0 40 6 70 10 49
15 57 38 61 41 8 117 52 114 65 -1 6 1 9 6 6 5 -3 20 7 34 22 74 79 88 153 38
203 -27 27 -35 30 -86 27 -31 -2 -76 -10 -100 -19z m-74 -62 c0 -2 -12 -14
-27 -28 l-28 -24 24 28 c23 25 31 32 31 24z m240 -121 c0 -2 -8 -10 -17 -17
-16 -13 -17 -12 -4 4 13 16 21 21 21 13z"/>
<path d="M1706 1374 c-4 -9 -4 -19 -2 -21 8 -8 26 8 26 23 0 19 -16 18 -24 -2z"/>
<path d="M2720 1308 c-9 -24 -26 -41 -61 -61 -27 -15 -51 -27 -54 -27 -3 0 -5
12 -5 28 1 29 20 62 38 62 6 0 13 -8 16 -17 4 -14 4 -14 3 2 -3 31 -58 28 -74
-5 -16 -34 -63 -78 -63 -59 1 8 7 25 15 39 22 39 18 46 -25 46 -32 -1 -47 -9
-82 -42 -24 -23 -54 -48 -68 -58 -13 -9 -19 -16 -11 -16 7 0 24 9 38 20 27 21
43 19 43 -6 0 -17 21 -18 39 -1 11 10 14 10 18 0 8 -21 30 -15 66 16 l33 30
-4 -30 c-2 -16 -13 -34 -23 -40 -32 -17 -24 -57 15 -76 19 -9 41 -13 50 -10
14 6 14 11 1 48 -8 23 -15 43 -15 45 0 4 85 54 93 54 4 0 4 -7 1 -15 -8 -21
25 -20 56 2 14 9 4 -4 -22 -28 -50 -47 -58 -66 -33 -75 25 -10 63 23 90 76 14
28 29 50 33 50 5 0 17 7 28 16 18 15 18 15 -3 5 -31 -15 -34 -14 -27 13 9 37
-11 39 -28 3 -9 -18 -29 -40 -46 -50 l-31 -18 16 47 c10 31 12 49 5 56 -7 7
-14 -1 -22 -24z m-219 -25 c-18 -31 -51 -68 -51 -58 0 17 39 75 50 75 7 0 8
-6 1 -17z m244 -102 c-17 -33 -35 -49 -35 -30 0 11 38 59 47 59 2 0 -3 -13
-12 -29z m-146 -33 c13 -36 11 -41 -12 -32 -18 7 -31 39 -22 54 11 18 23 11
34 -22z"/>
<path d="M1670 1295 c-24 -39 -87 -92 -97 -81 -13 13 26 76 47 76 12 0 18 5
15 10 -10 16 -51 12 -66 -7 -8 -9 -36 -34 -62 -55 -53 -41 -54 -50 -3 -19 30
19 62 16 54 -5 -7 -19 33 -14 59 6 l28 22 3 -21 c4 -28 41 -28 72 1 14 13 39
23 60 25 168 9 223 35 65 30 -95 -3 -95 -3 -124 -38 -37 -44 -49 -32 -29 31
19 60 8 73 -22 25z"/>
<path d="M1440 1290 c-22 -31 -24 -80 -3 -87 7 -3 13 8 15 24 2 21 8 27 21 25
38 -7 66 49 31 62 -29 11 -43 6 -64 -24z m60 1 c0 -5 -7 -11 -15 -15 -15 -5
-20 5 -8 17 9 10 23 9 23 -2z"/>
<path d="M2330 1300 c-22 -22 -35 -63 -26 -85 9 -24 23 -17 29 13 4 21 11 28
28 28 25 -1 45 24 36 48 -9 22 -43 20 -67 -4z m45 -19 c-3 -6 -11 -11 -17 -11
-6 0 -6 6 2 15 14 17 26 13 15 -4z"/>
<path d="M1970 1281 c0 -5 7 -15 17 -22 15 -13 15 -12 4 9 -12 23 -21 28 -21
13z"/>
<path d="M1515 1090 c-18 -8 -17 -9 8 -9 16 -1 26 3 22 9 -3 6 -7 10 -8 9 -1
0 -11 -4 -22 -9z"/>
</g>
</svg>
