<svg width="262" height="80" viewBox="0 0 262 80" fill="none" xmlns="http://www.w3.org/2000/svg">
<path d="M26.9934 2.56613C24.8245 3.264 19.557 6.75336 15.3224 10.359C3.75462 20.1292 -2.33911 31.6441 1.9988 35.5987C3.03164 36.5292 3.54806 36.6456 3.13492 35.8314C2.20537 34.0867 3.85791 29.2016 6.54328 26.1775C7.6794 24.898 8.40239 23.1534 7.98925 22.4555C7.57612 21.7576 7.6794 21.525 8.2991 21.8739C8.9188 22.3392 10.2615 21.525 11.2943 20.1292C12.4304 18.8498 16.0454 15.7094 19.3504 13.1505C34.4298 2.10088 55.7063 0.821445 57.6687 10.8243C60.2507 24.3165 43.6221 43.508 25.3409 48.0441L20.8997 49.2073L21.6227 45.6016C21.9325 43.6243 23.1719 39.6697 24.3081 36.7619C25.3409 33.9704 25.9606 30.83 25.754 30.0158C25.3409 28.969 25.6507 28.7363 26.3737 29.2016C27.2 29.7831 27.3033 29.4342 26.8901 28.0385C26.477 26.9917 26.5803 26.2938 26.9934 26.6427C28.2328 27.4569 33.8101 13.9647 32.9839 12.3363C31.6412 10.0101 30.4018 11.0569 26.6836 17.4541C22.1391 25.5959 17.5946 37.5761 18.5242 39.2044C19.0406 40.0186 18.7307 40.1349 17.9045 39.5534C16.8716 38.8555 16.7684 39.3207 17.1815 41.5307C17.8012 44.3221 17.6979 44.4385 13.0501 44.3221C7.0597 44.2058 6.23343 46.2995 10.9845 49.4399L14.4961 51.7661L14.1863 64.9094C13.8764 76.5406 13.9797 77.4711 15.1158 73.5165C15.7355 70.9576 16.6651 69.3292 16.9749 69.6782C17.2848 70.1434 17.9045 67.003 18.2143 62.8158C18.6275 58.6285 19.1439 54.6739 19.557 53.976C19.8669 53.3945 23.4818 56.4186 27.6131 60.8385C39.0776 73.0512 52.711 79.3321 67.7904 79.5647C73.7809 79.5647 74.7104 79.3321 73.6776 77.9363C72.9546 76.8895 71.3021 76.5406 68.9266 77.0058C64.4854 77.82 54.6734 75.7264 45.4812 71.7718C40.0072 69.5619 36.5988 67.1193 31.7445 61.8853C28.1295 58.047 25.1343 54.5576 25.1343 54.0924C25.1343 53.5108 26.9934 52.8129 29.369 52.3477C35.566 51.1846 47.1337 44.2058 52.4012 38.5065C58.9081 31.2952 61.2836 25.4796 60.9737 17.803C60.5606 10.2427 59.2179 7.33492 54.88 4.31081C51.2651 1.86825 42.8991 -0.5743 45.791 1.63563C47.1337 2.68244 47.1337 2.91506 45.5845 2.91506C44.5516 2.91506 43.7254 2.44981 43.7254 1.86825C43.7254 0.472509 31.951 0.937757 26.9934 2.56613ZM14.806 48.2768C14.806 48.8583 14.083 49.0909 13.2567 48.742C12.4304 48.2768 11.7075 47.8115 11.7075 47.5789C11.7075 47.3463 12.4304 47.1136 13.2567 47.1136C14.083 47.1136 14.806 47.5789 14.806 48.2768ZM16.8716 65.7236C16.8716 66.3051 16.4585 66.8867 15.8388 66.8867C15.3224 66.8867 14.806 66.3051 14.806 65.7236C14.806 65.0257 15.3224 64.5604 15.8388 64.5604C16.4585 64.5604 16.8716 65.0257 16.8716 65.7236Z" fill="#266C53"/>
<path d="M170.248 3.49645L174.379 5.24113L169.731 4.65957C167.149 4.31063 163.947 3.61276 162.605 3.26382C160.746 2.79857 160.333 2.91489 160.952 4.07801C161.572 5.24113 161.262 5.47375 159.61 5.0085C158.37 4.54325 157.337 4.77588 157.337 5.47375C157.337 6.17162 156.614 6.40425 155.788 5.939C154.962 5.59006 154.239 5.82269 154.239 6.52056C154.239 7.21843 153.826 7.45105 153.309 7.10212C152.793 6.63687 152.173 6.86949 151.967 7.33474C151.863 7.9163 148.971 10.0099 145.666 12.1035C135.544 18.617 128.728 31.7603 132.962 36.4128C134.615 38.2737 134.718 38.1574 133.995 35.017C133.479 32.4581 133.582 31.8766 134.615 32.5745C135.544 33.2723 135.648 32.6908 135.131 30.7135C134.718 29.2014 134.718 28.2709 135.131 28.7362C135.544 29.2014 137.3 27.4567 138.953 24.8979C145.46 14.6624 163.224 5.59006 174.482 6.63687C177.787 6.98581 180.886 8.03262 181.816 9.07942C188.116 16.1745 174.689 41.2979 160.229 49.3234C156.718 51.3007 153.309 52.9291 152.586 52.9291C151.14 52.9291 155.375 37.6922 161.262 21.7574C162.915 17.2213 163.947 13.034 163.431 12.6851C162.295 11.8709 158.164 15.1277 159.093 16.0581C159.403 16.5234 159.196 16.8723 158.473 16.8723C157.75 16.8723 157.544 17.3376 157.854 18.0355C158.164 18.617 157.957 19.1986 157.337 19.1986C156.718 19.1986 156.511 19.6638 156.821 20.3617C157.131 20.9432 157.027 21.5248 156.511 21.5248C155.168 21.5248 150.83 32.9234 147.835 43.8567C145.77 51.8823 145.15 52.9291 142.981 52.9291C141.535 52.9291 139.159 51.3007 137.094 48.8581C133.066 44.0893 132.136 43.7404 133.789 47.695C134.408 49.4397 136.99 51.6496 139.882 53.0454L144.737 55.6042L144.633 61.1872C144.53 64.3276 144.117 66.8865 143.704 66.8865C142.361 66.8865 142.774 76.773 144.117 78.2851C145.666 80.0298 149.075 80.1461 149.075 78.5177C149.075 77.8198 148.661 77.3546 148.145 77.3546C147.216 77.3546 147.112 70.1432 148.145 69.2128C148.455 68.8638 149.178 65.7234 149.694 62.234L150.624 55.8369L155.375 55.139C157.957 54.6737 162.088 53.1617 164.567 51.7659C170.248 48.5092 180.266 37.9248 179.647 35.9475C179.337 35.017 179.647 34.0865 180.266 33.6213C180.989 33.0397 181.093 33.3886 180.576 34.3191C179.956 35.3659 180.163 35.5986 180.989 35.017C181.712 34.4354 182.022 33.2723 181.712 32.3418C181.402 31.4113 181.609 31.0624 182.125 31.4113C183.468 32.3418 186.567 24.2 185.947 21.2922C185.637 20.1291 185.844 19.5475 186.463 19.8964C188.116 21.0596 186.36 13.2667 184.294 10.0099C181.299 5.12481 177.684 3.0312 171.797 2.44964L166.116 1.75176L170.248 3.49645ZM145.253 16.4071C142.774 18.617 139.676 22.2227 138.127 24.2C136.681 26.2936 135.958 26.7589 136.577 25.4794C137.713 22.9206 147.732 12.2198 148.971 12.2198C149.281 12.2198 147.629 14.0808 145.253 16.4071ZM175.928 40.7163C174.586 42.3447 173.243 43.2752 172.933 42.9262C172.623 42.5773 173.45 41.2979 174.896 40.1347C178.407 36.9943 178.82 37.2269 175.928 40.7163ZM145.976 73.2837C145.976 74.2142 145.563 75.261 144.943 75.6099C144.324 76.0752 143.91 75.0284 143.91 73.2837C143.91 71.539 144.324 70.4922 144.943 70.9574C145.563 71.3064 145.976 72.3532 145.976 73.2837Z" fill="#266C53"/>
<path d="M95.7803 31.4113C94.8507 35.7149 96.1934 36.529 98.4657 33.156C99.9116 31.0624 100.015 30.0156 99.1886 29.434C97.123 27.922 96.5033 28.3872 95.7803 31.4113Z" fill="#266C53"/>
<path d="M239.964 42.4611C237.898 47.5788 236.556 48.8582 230.875 52.3476C227.157 54.5575 223.749 56.0696 223.232 55.7206C222.199 54.9065 222.922 47.9277 224.472 44.671C226.021 41.5306 229.429 41.7632 229.946 45.0199C230.256 47.3462 230.359 47.4625 231.082 45.6015C232.321 42.6937 229.946 40.1348 225.918 40.1348C222.922 40.1348 222.199 40.7164 220.34 44.671C217.965 50.0213 212.387 57.2327 211.561 56.1859C211.148 55.8369 212.181 52.4639 213.627 48.8582C215.693 44.2057 216.106 41.8795 215.383 41.0653C214.556 40.1348 213.833 40.1348 212.697 41.1816C211.561 42.3448 210.632 42.3448 208.876 41.2979C205.881 39.437 202.369 41.2979 200.303 45.8341C198.547 49.5561 188.013 58.7447 185.43 58.7447C184.398 58.7447 184.088 57.9306 184.604 56.0696C184.914 54.6738 185.224 52.8128 185.224 51.9987C185.224 51.1845 186.773 50.6029 189.355 50.6029C192.35 50.6029 193.693 50.0213 194.519 48.2767C195.656 45.9504 195.139 41.4143 193.693 41.1816C188.219 40.1348 187.29 40.4838 184.191 44.3221C181.712 47.5788 181.093 49.4398 181.093 53.627C181.093 58.1632 181.402 58.9774 183.778 59.9079C186.05 60.9547 187.29 60.6057 191.421 57.5816C197.101 53.5107 197.618 53.3944 197.618 56.3022C197.618 59.3263 200.51 60.2568 203.505 58.1632C205.674 56.5348 206.087 56.5348 207.533 58.1632C209.805 60.6057 210.528 60.3731 215.073 55.8369L219.101 51.766L219.824 54.9065C220.34 57.5816 219.927 58.6284 217.242 61.071C214.66 63.3972 214.04 64.793 214.35 67.3518C214.763 71.5391 218.584 74.7958 223.439 75.2611C226.537 75.61 227.054 75.2611 227.364 72.9348C227.57 71.5391 226.95 67.9334 225.918 65.1419C224.988 62.2341 224.368 59.6752 224.575 59.4426C224.781 59.21 227.673 57.349 230.875 55.3717C236.556 51.766 236.762 51.766 237.382 54.0923C238.208 57.2327 242.03 57.1164 245.645 53.8596C247.504 52.2313 248.227 51.9987 247.607 53.1618C247.091 54.2086 244.199 57.1164 241.307 59.7916C237.279 63.2809 235.833 65.3745 235.833 67.4682C235.833 69.9107 236.349 70.376 238.828 70.376C243.063 70.376 247.297 65.9561 251.222 57.6979C253.081 53.7433 254.837 50.6029 255.25 50.6029C255.663 50.6029 257.109 49.5561 258.555 48.2767L261.137 45.8341L258.245 47.2299C254.734 48.9745 254.114 48.2767 255.457 44.3221C257.419 38.2738 254.217 36.8781 251.945 42.6937C250.396 46.8809 245.541 52.2313 242.236 53.3944C240.274 54.0923 240.171 53.8596 240.997 50.9518C241.41 49.2072 242.546 45.8341 243.476 43.3916C244.818 40.0185 244.818 38.9717 243.682 37.9249C242.65 36.9944 241.823 37.9249 239.964 42.4611ZM192.454 43.5079C192.454 45.0199 189.458 48.2767 188.116 48.2767C187.393 48.2767 188.013 46.9972 189.355 45.3689C192.041 42.2284 192.454 41.8795 192.454 43.5079ZM206.294 50.4866C202.059 56.8838 200.51 56.7674 203.402 50.3703C205.881 44.9036 208.153 42.2284 209.289 43.5079C209.805 44.0894 208.669 46.8809 206.294 50.4866ZM244.096 62.4667C241.617 67.7008 237.898 71.1901 237.898 68.0497C237.898 66.654 244.199 58.5121 244.818 59.21C245.128 59.4426 244.715 60.9547 244.096 62.4667ZM223.439 71.3064C223.439 75.0284 220.444 74.3306 218.378 70.1433C216.932 67.3518 216.932 66.8866 218.791 64.5603L220.857 62.0015L222.096 65.3745C222.819 67.1192 223.336 69.7944 223.439 71.3064Z" fill="#266C53"/>
<path d="M91.5457 42.6936C89.2734 47.3461 80.1845 57.5816 78.2221 57.5816C75.9499 57.5816 76.4663 53.8596 79.4615 48.9745C81.4239 45.8341 82.6633 44.7873 84.1093 45.1362C86.4848 45.8341 86.7946 43.0426 84.4191 41.9958C81.114 40.6 78.8418 41.4142 75.64 45.3688C70.5791 51.6497 61.4901 59.0936 59.8376 58.3958C58.7015 57.9305 58.4949 56.8837 59.1146 54.4412C59.7343 51.766 60.5606 51.0681 63.4525 50.8355C67.7904 50.3702 69.5463 48.7419 69.5463 45.2525C69.5463 42.2284 68.3069 41.0653 64.2788 40.6C59.9409 40.0185 55.0866 46.9972 55.0866 53.8596C55.0866 58.0468 55.4997 58.9773 57.7719 59.9078C60.6639 61.1873 62.523 60.3731 68.1003 55.6043C72.0251 52.3475 72.6448 52.2312 72.6448 55.2553C72.6448 58.0468 76.1564 60.2568 78.8418 59.3263C79.9779 58.861 82.2501 57.349 83.9027 55.7206L86.8979 52.9291L87.6209 56.4185C88.6537 61.7688 93.1982 61.3036 98.6722 55.2553C102.7 50.8355 105.696 48.9745 104.043 51.9986C103.527 52.8128 103.836 53.0454 104.869 52.5802C105.799 52.2312 111.789 51.5334 118.399 51.0681C127.488 50.4865 130.174 49.905 129.761 48.7419C129.038 46.5319 117.573 45.6014 109.31 47.1135C102.804 48.2766 101.564 48.8582 97.2263 53.7433C94.5409 56.7674 91.9588 58.7447 91.5457 58.2795C91.1325 57.8142 91.8555 53.9759 93.1982 49.6724C95.8836 40.8326 95.9869 39.7858 94.4376 39.2043C93.8179 38.9717 92.4752 40.4837 91.5457 42.6936ZM64.7952 46.7646C61.6967 49.3234 60.7672 48.5092 63.4525 45.2525C65.0018 43.3915 66.0346 42.8099 66.3445 43.7404C66.551 44.5546 65.9313 45.8341 64.7952 46.7646ZM117.573 49.2071C117.263 49.556 116.437 49.2071 115.714 48.3929C114.784 47.2298 114.888 47.1135 116.334 47.8114C117.367 48.1603 117.883 48.8582 117.573 49.2071ZM125.629 49.0908C124.287 49.3234 122.221 49.3234 120.981 49.0908C119.639 48.8582 120.672 48.6256 123.254 48.6256C125.836 48.6256 126.869 48.8582 125.629 49.0908ZM111.583 50.1376C111.273 50.4865 110.343 50.6029 109.62 50.2539C108.794 49.905 109.104 49.556 110.24 49.556C111.376 49.4397 111.996 49.7887 111.583 50.1376Z" fill="#266C53"/>
<path d="M16.0454 76.0752C15.4257 78.0525 15.1158 79.6809 15.4257 79.6809C16.1487 79.6809 18.0078 73.6327 17.4913 73.0511C17.2848 72.8185 16.6651 74.2142 16.0454 76.0752Z" fill="#266C53"/>
</svg>
