<svg width="26" height="24" viewBox="0 0 26 24" fill="none" xmlns="http://www.w3.org/2000/svg">
<path fill-rule="evenodd" clip-rule="evenodd" d="M25.2188 20.9362L18.2372 14.6363C19.4886 13.0967 20.159 11.2354 20.1497 9.32635C20.1258 4.34308 15.6573 0.306652 10.1326 0.27787C7.48877 0.267081 4.94994 1.21049 3.08171 2.89795C1.21348 4.5854 0.171044 6.87671 0.186635 9.26145C0.210513 14.2452 4.67942 18.282 10.2046 18.3107C12.3297 18.3191 14.4008 17.7073 16.1088 16.5668L16.1161 16.5618L23.0913 22.8568C23.4684 23.2136 24.0304 23.3581 24.5594 23.2341C25.0885 23.1102 25.5015 22.7374 25.6384 22.2601C25.7754 21.7828 25.6147 21.276 25.2188 20.9362ZM10.1973 16.5068C5.77739 16.4839 2.20233 13.2548 2.18293 9.26803C2.171 7.36049 3.00501 5.5278 4.49931 4.17794C5.99362 2.82808 8.02418 2.07308 10.139 2.081C14.5589 2.10393 18.134 5.33303 18.1534 9.31978C18.1653 11.2273 17.3313 13.06 15.837 14.4099C14.3427 15.7597 12.3121 16.5147 10.1973 16.5068Z" fill="#0D8E96" fill-opacity="0.85"/>
</svg>
